<svg version="1.1" id="Layer_1" xmlns:x="&ns_extend;" xmlns:i="&ns_ai;" xmlns:graph="&ns_graphs;"
	 xmlns="http://www.w3.org/2000/svg" xmlns:xlink="http://www.w3.org/1999/xlink" xmlns:a="http://ns.adobe.com/AdobeSVGViewerExtensions/3.0/"
	 x="0px" y="0px" width="223.864px" height="103.646px" viewBox="0 0 223.864 103.646"
	  xml:space="preserve">
<path d="M223.322,38.964c-0.318-0.715-0.8-1.296-1.434-1.709c-0.741-0.482-1.573-0.488-2.416-0.239
	c-0.619,0.183-1.177,0.487-1.663,0.891c-0.494,0.414-0.939,0.888-1.39,1.352c-0.556,0.567-0.963,1.235-1.319,1.938
	c-0.084,0.165-0.143,0.346-0.234,0.506c-0.683,1.183-1.011,2.471-1.153,3.814c-0.046,0.419-0.086,0.838-0.102,1.258
	c-0.011,0.278,0.01,0.554,0.03,0.832c0.013,0.167,0.008,0.336,0.03,0.501c0.069,0.53,0.156,1.058,0.217,1.587
	c0.051,0.451,0.033,0.913,0.125,1.352c0.287,1.39,0.618,2.771,0.924,4.157c0.247,1.123,0.51,2.246,0.703,3.378
	c0.106,0.624,0.114,1.289-0.395,1.785c-0.393,0.379-0.858,0.667-1.396,0.812c-0.397,0.109-0.789,0.147-1.085-0.237
	c-0.022-0.03-0.066-0.043-0.097-0.069c-0.382-0.336-0.771-0.665-1.138-1.013c-0.138-0.132-0.222-0.321-0.323-0.484
	c-0.077-0.125-0.141-0.257-0.222-0.377c-0.654-0.942-1.316-1.879-1.958-2.831c-0.114-0.17-0.176-0.372-0.173-0.578
	c0.013-0.646,0.056-1.293,0.114-1.938c0.021-0.238,0.112-0.472,0.19-0.702c0.107-0.32,0.234-0.636,0.357-0.953
	c0.16-0.423,0.343-0.839,0.479-1.271c0.119-0.392,0.155-0.81,0.279-1.199c0.268-0.843,0.375-1.708,0.405-2.586
	c0.022-0.594,0.114-1.166,0.44-1.674c0.135-0.21,0.344-0.379,0.451-0.6c0.201-0.415,0.404-0.841,0.512-1.286
	c0.231-0.951,0.45-1.901,0.404-2.903c-0.054-1.241-0.193-2.447-0.646-3.617c-0.438-1.124-1.069-2.104-1.89-2.979
	c-0.152-0.163-0.311-0.399-0.318-0.604c-0.007-0.348-0.065-0.669-0.165-0.998c-0.229-0.769-0.41-1.553-0.662-2.314
	c-0.504-1.518-1.072-3.012-1.879-4.397c-0.481-0.826-1.011-1.627-1.581-2.392c-0.387-0.518-0.873-0.97-1.354-1.403
	c-0.565-0.507-1.248-0.857-1.976-1.071c-0.354-0.103-0.724-0.272-1.088-0.113c-0.384,0.168-0.748,0.383-1.125,0.573
	c-1.057,0.531-2.108,1.071-3.175,1.585c-0.436,0.21-0.889-0.115-0.912-0.646c0.098,0.018,0.188,0.031,0.278,0.052
	c0.458,0.112,0.906,0.094,1.323-0.13c0.627-0.337,1.245-0.692,1.864-1.046c0.222-0.127,0.476-0.218,0.583-0.489
	c0.021-0.047,0.102-0.084,0.163-0.096c0.227-0.045,0.333-0.189,0.354-0.405c0.023-0.228-0.138-0.334-0.311-0.417
	c-0.359-0.172-0.71-0.369-1.085-0.498c-0.789-0.269-1.586-0.514-2.391-0.738c-0.311-0.088-0.634-0.026-0.901,0.183
	c-0.591,0.461-1.275,0.696-1.993,0.849c-0.089,0.019-0.188-0.017-0.283-0.027c-0.002-0.025-0.007-0.052-0.013-0.078
	c0.059-0.036,0.112-0.074,0.171-0.104c0.328-0.173,0.67-0.325,0.985-0.521c0.311-0.193,0.382-0.604,0.166-0.897
	c-0.362-0.486-0.711-0.987-1.123-1.424c-0.323-0.344-0.7-0.678-1.118-0.884c-1.247-0.617-2.554-1.044-3.979-0.859
	c-0.618,0.08-1.245,0.123-1.851,0.261c-0.914,0.21-1.749,0.141-2.516-0.439c-0.285-0.215-0.586-0.41-0.889-0.598
	c-0.087-0.054-0.26-0.104-0.301-0.065c-0.068,0.067-0.102,0.219-0.081,0.321c0.04,0.196,0.094,0.407,0.203,0.568
	c0.52,0.742,1.055,1.465,1.806,2.015c0.729,0.53,1.532,0.793,2.4,0.839c0.614,0.032,1.199,0.171,1.796,0.281
	c0.547,0.101,0.962,0.313,1.173,0.846c0.008,0.014,0.021,0.026,0.028,0.039c0.239,0.373,0.146,0.712-0.272,0.855
	c-0.626,0.215-1.263,0.418-1.909,0.559c-0.288,0.063-0.581,0.089-0.874,0.116c-0.458,0.043-0.816,0.25-1.016,0.654
	c-0.145,0.298-0.26,0.611-0.377,0.922c-0.143,0.377-0.262,0.763-0.415,1.136c-0.053,0.135-0.147,0.253-0.272,0.332
	c-0.272,0.174-0.583,0.237-0.908,0.192c-0.146-0.019-0.293-0.042-0.438-0.035c-0.076,0.004-0.181,0.052-0.216,0.113
	c-0.025,0.045,0.018,0.161,0.063,0.214c0.211,0.249,0.486,0.379,0.814,0.362c0.578-0.029,0.721,0.159,0.431,0.615
	c-0.103,0.161-0.013,0.279,0.163,0.28c0.14,0,0.305-0.018,0.417-0.092c0.318-0.206,0.608-0.453,0.919-0.671
	c0.095-0.066,0.22-0.09,0.329-0.132c0.002,0.113,0.027,0.231,0.005,0.338c-0.066,0.307-0.263,0.53-0.491,0.736
	c-0.481,0.433-0.537,0.66-0.188,1.194c0.293,0.444,0.293,0.864,0.127,1.338c-0.171,0.489-0.326,0.985-0.445,1.488
	c-0.184,0.772-0.158,1.558-0.092,2.345c0.018,0.186-0.013,0.396-0.089,0.564c-0.112,0.249-0.296,0.463-0.428,0.703
	c-0.232,0.415-0.402,0.844-0.128,1.31c0.298,0.501,0.719,0.719,1.312,0.609c0.198-0.037,0.418,0,0.626,0.028
	c0.188,0.024,0.313,0.14,0.393,0.323c0.102,0.242,0.234,0.508,0.517,0.531c0.309,0.025,0.512-0.208,0.68-0.449
	c0.046-0.066,0.079-0.143,0.133-0.202c0.178-0.2,0.326-0.469,0.547-0.576c0.402-0.193,0.614-0.536,0.889-0.841
	c0.194-0.217,0.456-0.39,0.716-0.523c0.106-0.055,0.328,0.005,0.433,0.092c0.15,0.122,0.069,0.303-0.046,0.432
	c-0.111,0.127-0.234,0.247-0.366,0.354c-0.227,0.186-0.466,0.353-0.692,0.539c-0.39,0.32-0.486,0.733-0.349,1.206
	c0.145,0.49,0.084,0.603-0.402,0.727c-0.074,0.019-0.141,0.085-0.209,0.13c0.054,0.066,0.094,0.154,0.16,0.193
	c0.52,0.308,1.293,0.243,1.772-0.122c0.254-0.193,0.476-0.405,0.626-0.698c0.13-0.256,0.27-0.303,0.433-0.155
	c0.247,0.222,0.575,0.086,0.718-0.128c0.275-0.415,0.494-0.855,0.578-1.356c0.074-0.434,0.019-0.854-0.065-1.281
	c-0.079-0.392,0.091-0.62,0.479-0.703c0.127-0.027,0.252-0.065,0.371-0.109c0.912-0.344,1.475-1.08,1.91-1.872
	c0.596-1.084,0.639-2.294,0.504-3.507c-0.01-0.103-0.01-0.21,0.005-0.312c0.008-0.045,0.071-0.117,0.102-0.113
	c0.054,0.007,0.125,0.053,0.143,0.101c0.095,0.248,0.215,0.498,0.245,0.756c0.051,0.433,0.089,0.877,0.048,1.309
	c-0.145,1.502-0.843,2.787-1.7,3.985c-0.446,0.623-0.978,1.184-1.479,1.766c-0.222,0.258-0.328,0.521-0.214,0.87
	c0.068,0.214,0.081,0.465-0.14,0.621c-0.321,0.229-0.654,0.439-0.985,0.656c-0.286,0.187-0.576,0.364-0.856,0.558
	c-0.186,0.128-0.361,0.272-0.529,0.424c-0.181,0.163-0.178,0.322-0.013,0.409c0.209,0.109,0.212,0.206,0.03,0.368
	c-0.195,0.175-0.382,0.366-0.57,0.552c-0.165,0.162-0.149,0.322-0.01,0.495c0.186,0.224,0.359,0.456,0.535,0.689
	c0.032,0.046,0.045,0.109,0.068,0.164c-0.016,0.021-0.03,0.043-0.046,0.063c-0.117-0.047-0.244-0.08-0.354-0.145
	c-0.194-0.114-0.382-0.242-0.563-0.374c-0.137-0.098-0.267-0.208-0.389-0.324c-0.117-0.11-0.209-0.25-0.334-0.35
	c-0.448-0.36-0.879-0.748-1.362-1.052c-0.575-0.361-1.179-0.704-1.895-0.712c-0.188-0.002-0.356-0.116-0.42-0.294
	c-0.089-0.25-0.171-0.506-0.272-0.752c-0.079-0.186-0.16-0.379-0.28-0.536c-0.692-0.897-2.107-0.906-2.885-0.092
	c-0.295,0.311-0.585,0.631-0.914,0.906c-0.509,0.429-1.13,0.661-1.741,0.9c-0.311,0.121-0.611,0.269-0.93,0.363
	c-0.845,0.253-1.133,1.049-1.599,1.655c-0.227,0.299-0.415,0.494-0.81,0.488c-0.402-0.006-0.751,0.267-0.855,0.657
	c-0.071,0.262-0.163,0.52-0.239,0.78c-0.165,0.578-0.341,1.152-0.489,1.734c-0.252,0.988-0.488,1.981-0.73,2.971
	c-0.03,0.126-0.074,0.25-0.097,0.377c-0.01,0.073,0.013,0.15,0.021,0.226c0.076-0.014,0.171-0.003,0.227-0.045
	c0.186-0.143,0.372-0.292,0.529-0.464c0.222-0.238,0.497-0.173,0.602,0.133c0.14,0.412,0.292,0.824,0.183,1.282
	c-0.027,0.117,0.031,0.327,0.117,0.383c0.117,0.071,0.303,0.048,0.456,0.037c0.071-0.005,0.14-0.079,0.203-0.128
	c0.446-0.354,0.889-0.709,1.335-1.065c0.046-0.039,0.089-0.081,0.13-0.127c0.435-0.532,0.87-1.065,1.301-1.602
	c0.076-0.094,0.14-0.196,0.181-0.307c0.191-0.505,0.257-1.053,0.117-1.579c-0.146-0.545-0.743-1.08-0.433-1.679
	c0.178-0.349,0.618-0.452,0.914-0.196c0.168,0.146,0.293,0.352,0.396,0.567c0.049,0.101,0.199,0.078,0.212-0.035
	c0.025-0.223,0.071-0.451,0.076-0.619c0.018-0.485,0.102-0.918,0.58-1.152c0.334-0.165,0.681-0.306,1.006-0.488
	c0.393-0.218,0.795-0.158,1.151,0.004c0.81,0.365,1.245,1.008,1.266,1.911c0.002,0.121,0.007,0.245,0.038,0.363
	c0.346,1.448,1.359,2.596,2.337,3.662c0.443,0.481,0.924,0.901,1.609,0.983c0.222,0.027,0.364,0.123,0.392,0.355
	c0.011,0.081,0.023,0.161,0.031,0.242c0.099,1.04,0.894,2.379,2.044,2.467c0.4,0.032,0.771-0.123,1.164-0.15
	c0.425-0.032,0.85,0.08,1.277,0.023c0.973-0.13,1.739-1.056,2.723-1.052c0.022,0.199-0.174,0.348-0.35,0.443
	c-1.474,0.798-3.292,1.104-4.954,0.931c-1.275-0.133-2.465-0.893-2.473-2.297c-0.002-0.357-0.229-0.677-0.553-0.826
	c-0.409-0.188-0.824-0.37-1.214-0.592c-0.313-0.177-0.426-0.169-0.481,0.187c-0.071,0.439-0.106,0.887-0.109,1.332
	c-0.003,0.469,0.022,0.942,0.092,1.405c0.097,0.653,0.377,1.254,0.644,1.852c0.098,0.219,0.242,0.418,0.375,0.62
	c0.279,0.42,0.728,0.719,0.878,1.229c0.011,0.031,0.036,0.07,0.062,0.088c0.361,0.274,0.721,0.552,1.092,0.811
	c0.069,0.047,0.229,0.052,0.283,0.004c0.056-0.051,0.059-0.194,0.038-0.287c-0.054-0.237-0.141-0.466-0.199-0.702
	c-0.015-0.068,0.013-0.15,0.021-0.225l0.071-0.005c0.033,0.062,0.063,0.123,0.095,0.184c0.143,0.288,0.231,0.625,0.438,0.853
	c0.347,0.375,0.604,0.83,0.927,1.225c-0.138,0.182-0.268,0.355-0.318,0.359c-0.099,0.009-0.249,0.126-0.272,0.219
	c-0.078,0.352-0.132,0.71-0.17,1.067c-0.025,0.219,0.097,0.428,0.298,0.52c1.726,0.784,3.261,1.986,4.534,3.384
	c1.266,1.393,1.438,2.913,1.703,4.715c0.122,0.835,0.551,1.606,0.637,2.447c0.1,0.962-0.521,1.632-0.787,2.505
	c-0.42,1.385,1.019,2.511,1.958,3.257c1.212,0.959,2.246,2.294,3.713,2.852c0.463,0.175,0.881,0.425,1.207,0.797
	c0.104,0.12,0.2,0.267,0.233,0.417c0.109,0.479,0.168,0.973-0.051,1.433c-0.27,0.563-0.539,1.125-0.86,1.66
	c-0.395,0.657-0.896,1.22-1.581,1.614c-0.695,0.4-1.25,0.942-1.51,1.744c-0.059,0.181-0.227,0.379-0.397,0.463
	c-0.494,0.237-1.019,0.417-1.525,0.626c-0.3,0.125-0.608,0.239-0.888,0.399c-0.69,0.393-1.37,0.808-2.05,1.22
	c-0.109,0.063-0.209,0.155-0.29,0.252c-0.095,0.115-0.062,0.232,0.068,0.306c0.056,0.03,0.119,0.062,0.181,0.069
	c0.366,0.053,0.733,0.106,1.1,0.149c0.316,0.036,0.402,0.194,0.206,0.431c-0.157,0.191-0.341,0.369-0.542,0.509
	c-0.326,0.229-0.349,0.505,0.005,0.695c0.369,0.198,0.774,0.334,1.146,0.53c0.832,0.439,1.7,0.305,2.571,0.198
	c0.272-0.033,0.55-0.069,0.807-0.16c0.654-0.232,1.126-0.64,1.299-1.36c0.147-0.616,0.491-1.148,0.833-1.675
	c0.186-0.285,0.547-0.42,0.865-0.298c0.349,0.137,0.341,0.471,0.382,0.764c0.041,0.285,0.209,0.306,0.453-0.051
	c0.051-0.074,0.095-0.155,0.122-0.239c0.128-0.407,0.13-0.825,0.006-1.243c-0.13-0.425-0.247-0.855-0.375-1.28
	c-0.063-0.216,0-0.359,0.181-0.501c0.207-0.163,0.436-0.349,0.54-0.578c0.255-0.552,0.604-1.023,1.014-1.461
	c0.476-0.509,1.095-0.889,1.785-0.996c0.442-0.069,0.723-0.316,0.926-0.7c0.347-0.665,0.486-1.377,0.502-2.113
	c0.013-0.583-0.16-1.135-0.491-1.604c-0.356-0.501-0.713-0.996-0.83-1.604c-0.094-0.474-0.146-0.958-0.186-1.438
	c-0.008-0.102,0.109-0.214,0.168-0.321c0.059,0.097,0.109,0.201,0.176,0.293c0.061,0.086,0.127,0.204,0.216,0.227
	c0.069,0.02,0.196-0.059,0.258-0.127c0.73-0.835,1.42-1.706,2.253-2.45c0.29-0.259,0.542-0.563,0.723-0.909
	c0.736-1.39,1.18-2.857,1.042-4.46c-0.074-0.858-0.176-1.709-0.472-2.523c-0.025-0.076-0.043-0.158-0.046-0.237
	c-0.007-0.188,0.131-0.252,0.278-0.137c0.17,0.132,0.325,0.29,0.471,0.45c0.372,0.41,0.817,0.744,1.337,0.901
	c1.724,0.524,3.417-0.288,3.908-2.264c0.252-1.016,0.219-2.06,0.048-3.091c-0.099-0.598-0.208-1.202-0.384-1.779
	c-0.304-0.993-0.635-1.979-1.006-2.946c-0.342-0.886-0.657-1.768-0.898-2.692c-0.266-1.007-0.179-2.013-0.117-2.998
	c0.073-1.18,0.183-2.373,0.493-3.535c0.323-1.209,0.708-2.374,1.419-3.421c0.305-0.453,0.667-0.837,1.109-1.145
	c0.166-0.114,0.347-0.219,0.532-0.291c0.418-0.159,0.754,0.097,0.698,0.533c-0.025,0.215-0.059,0.451-0.168,0.629
	c-0.4,0.648-0.914,1.254-1.345,1.894c-0.372,0.554-0.988,1.418-0.667,2.113c0.038,0.082,0.063,0.172,0.079,0.266
	c0.109-0.205,0.216-0.412,0.341-0.607c0.211-0.326,0.443-0.636,0.7-0.925c0.604-0.676,1.332-1.232,2.121-1.671
	c0.112-0.063,0.209,0.114,0.097,0.178c-0.692,0.384-1.334,0.86-1.884,1.43c-0.372,0.386-0.678,0.83-0.95,1.29
	c-0.239,0.403-0.55,0.868-0.608,1.344c-0.046,0.372-0.122,0.773-0.028,1.118c0.008,0.031,0.011,0.059,0.019,0.088
	c0.287-0.591,0.59-1.172,1.011-1.683c0.748-0.909,1.77-1.566,2.581-2.417c0.092-0.094,0.229,0.053,0.141,0.147
	c-0.774,0.811-1.734,1.441-2.47,2.284c-0.298,0.341-0.543,0.726-0.759,1.123c-0.272,0.5-0.436,0.889-0.479,1.461
	c-0.044,0.565-0.028,1.133,0.04,1.696c0.754-1.762,2.307-3.035,3.409-4.601c0.057-0.079,0.179-0.159,0.229-0.079
	c0.03,0.048-0.003,0.109-0.033,0.155c-0.995,1.458-2.421,2.614-3.211,4.189c-0.328,0.654-0.162,1.271,0.049,1.938
	c0.122,0.393,0.382,0.66,0.751,0.829c-0.097-0.586-0.323-1.058-0.171-1.673c0.369-1.483,1.772-2.398,2.514-3.674
	c0.063-0.113,0.236-0.005,0.17,0.106c-0.728,1.258-2.131,2.168-2.489,3.626c-0.204,0.829,0.063,1.832,0.682,2.428
	c0.629,0.608,1.714,0.727,2.307,0.005c0.082-0.098,0.064-0.276,0.092-0.417c-0.127,0.013-0.254,0.019-0.382,0.04
	c-0.054,0.009-0.1,0.052-0.152,0.074c-0.364,0.144-0.695,0.05-0.906-0.25c-0.395-0.558-0.515-1.716-0.021-2.372
	c0.32-0.428,0.639-0.853,0.99-1.26c0.445-0.517,0.838-1.077,1.171-1.673c0.469-0.84,0.92-1.699,1.263-2.596
	C223.966,42.6,224.132,40.784,223.322,38.964z"/>
<path  d="M195.685,62.653c-0.293-1.189-0.938-2.149-1.897-2.895c-0.705-0.544-1.408-1.095-2.134-1.606
	c-0.558-0.392-1.143-0.741-1.731-1.082c-0.14-0.082-0.358-0.117-0.512-0.071c-0.648,0.191-1.298,0.4-1.932,0.642
	c-0.599,0.227-1.085,0.636-1.424,1.174c-0.578,0.917-0.608,1.915-0.323,2.93c0.15,0.54,0.333,1.069,0.507,1.602
	c0.214,0.649,0.203,1.306,0.081,1.968c-0.03,0.181-0.155,0.392-0.097,0.527c0.057,0.127,0.298,0.173,0.461,0.247
	c0.173,0.079,0.191,0.193,0.041,0.308c-0.057,0.043-0.125,0.074-0.193,0.099c-0.749,0.283-1.543,0.393-2.327,0.451
	c-0.805,0.059-1.627,0.048-2.427-0.059c-0.751-0.1-1.426,0.221-1.752,0.985c-0.086,0.201-0.234,0.298-0.453,0.305
	c-0.186,0.005-0.371,0.031-0.558,0.041c-0.565,0.03-1.13,0.048-1.693,0.094c-0.157,0.013-0.311,0.099-0.461,0.168
	c-0.076,0.036-0.13,0.125-0.206,0.168c-0.898,0.504-1.838,0.922-2.823,1.232c-0.309,0.097-0.606,0.231-0.896,0.377
	c-0.089,0.045-0.19,0.193-0.178,0.277c0.013,0.086,0.152,0.168,0.254,0.219c0.082,0.043,0.194,0.025,0.283,0.059
	c0.114,0.046,0.219,0.115,0.325,0.171c-0.068,0.122-0.127,0.252-0.211,0.361c-0.046,0.059-0.138,0.084-0.206,0.127
	c-0.125,0.076-0.255,0.145-0.369,0.231c-0.309,0.229-0.296,0.456,0.028,0.67c0.099,0.069,0.206,0.127,0.308,0.193
	c0.596,0.395,1.177,0.822,1.785,0.914c0.851,0.239,1.77,0.311,2.528,0.219c0.308-0.036,0.514-0.234,0.601-0.583
	c0.138-0.563,0.433-1.034,0.843-1.428c0.32-0.311,0.703-0.479,1.176-0.377c0.441,0.094,0.803,0.83,0.383,1.202
	c-0.107,0.097-0.201,0.216-0.271,0.344c-0.051,0.097-0.104,0.267-0.059,0.323c0.066,0.076,0.239,0.135,0.336,0.104
	c0.212-0.064,0.426-0.161,0.602-0.296c0.493-0.376,0.567-0.944,0.598-1.507c0.016-0.298,0.112-0.515,0.367-0.665
	c0.298-0.176,0.507-0.42,0.629-0.749c0.157-0.42,0.474-0.672,0.909-0.764c0.898-0.188,1.8-0.188,2.706-0.056
	c0.257,0.036,0.515,0.071,0.774,0.089c0.995,0.071,1.96,0.306,2.899,0.608c0.762,0.247,1.464,0.257,2.157-0.127
	c0.59-0.331,1.005-0.804,1.046-1.51c0.033-0.598,0.066-1.202,0.041-1.8c-0.021-0.456,0.13-0.835,0.339-1.22
	c0.404-0.749,1.095-1.204,1.73-1.713C195.603,63.328,195.771,63.005,195.685,62.653z"/>
<path  d="M185.719,45.36c0.102-0.637-0.318-0.994-0.901-0.761c-0.565,0.227-1.047,0.584-1.459,1.031
	c-0.196,0.215-0.433,0.318-0.713,0.378c-0.405,0.085-0.807,0.187-1.196,0.325c-0.443,0.156-0.808,0.437-1.105,0.81
	c-0.555,0.695-0.878,1.506-1.217,2.315c-0.426,1.008-0.871,2.008-1.334,3c-0.076,0.166-0.26,0.321-0.431,0.396
	c-0.621,0.27-0.976,0.775-1.13,1.382c-0.092,0.364-0.112,0.848,0.056,1.161c0.578,1.095,0.675,2.292,0.894,3.465
	c0.109,0.578,0.14,1.184,0.331,1.731c0.196,0.55,0.534,1.051,0.835,1.558c0.112,0.191,0.318,0.175,0.407-0.015
	c0.204-0.425,0.397-0.861,0.191-1.35c-0.023-0.051,0.015-0.13,0.025-0.193c0.059,0.028,0.143,0.041,0.176,0.089
	c0.241,0.372,0.488,0.744,0.705,1.133c0.158,0.28,0.263,0.591,0.405,0.884c0.137,0.277,0.407,0.288,0.56,0.018
	c0.092-0.16,0.155-0.338,0.231-0.517c0.054-0.29,0.097-0.588,0.161-0.881c0.257-1.197,0.305-2.409,0.259-3.628
	c-0.025-0.72-0.46-1.097-1.057-1.336c-0.374-0.148-0.776-0.227-1.163-0.344c-0.285-0.084-0.44-0.285-0.328-0.522
	c0.149-0.308,0.341-0.609,0.57-0.858c0.208-0.227,0.479-0.157,0.656,0.109c0.079,0.121,0.122,0.267,0.209,0.384
	c0.069,0.097,0.184,0.245,0.265,0.234c0.109-0.013,0.26-0.132,0.298-0.24c0.122-0.346,0.176-0.718,0.011-1.063
	c-0.12-0.247-0.117-0.467-0.054-0.725c0.059-0.235,0.038-0.49,0.063-0.734c0.016-0.148,0.005-0.35,0.095-0.427
	c0.331-0.281,0.677-0.562,1.059-0.764c0.474-0.252,0.93-0.57,1.489-0.625c0.568-0.432,1.276-0.372,1.92-0.522
	c0.405-0.094,0.53-0.322,0.293-0.673c-0.092-0.134-0.19-0.268-0.249-0.415c-0.469-1.18-0.388-2.35,0.081-3.51
	C185.665,45.564,185.701,45.463,185.719,45.36z"/>
<path d="M182.977,18.292c0.285,0.305,0.578,0.619,0.919,0.852c0.369,0.252,0.802,0.415,1.207,0.616
	c0.481,0.147,0.939,0.248,1.434,0.038c0.361-0.154,0.738-0.29,1.123-0.375c0.552-0.124,1.12-0.184,1.675-0.295
	c0.13-0.027,0.28-0.13,0.347-0.242c0.094-0.155-0.033-0.288-0.161-0.389c-0.02-0.015-0.038-0.03-0.059-0.044
	c-0.498-0.361-1.082-0.508-1.67-0.636c-0.106-0.024-0.244,0.002-0.349,0.049c-0.471,0.21-0.96,0.261-1.448,0.148
	c-0.426-0.098-0.851-0.229-1.248-0.406c-0.553-0.248-1.1-0.523-1.614-0.843c-0.382-0.238-0.705-0.565-1.06-0.851
	c-0.063-0.052-0.137-0.091-0.206-0.136c-0.018,0.086-0.063,0.177-0.051,0.259c0.071,0.539,0.29,1.025,0.586,1.474
	C182.579,17.781,182.76,18.055,182.977,18.292z"/>
<path  d="M51.091,68.79c-0.282-0.242-0.593-0.446-0.881-0.68c-0.054-0.043-0.056-0.15-0.084-0.229
	c0.079,0.01,0.171-0.002,0.234,0.036c0.229,0.133,0.445,0.28,0.729,0.463c-0.028-0.153-0.021-0.254-0.063-0.329
	c-0.112-0.196-0.234-0.389-0.375-0.565c-0.491-0.621-1.199-0.958-1.861-1.342c-0.155-0.092-0.392-0.084-0.585-0.061
	c-0.296,0.036-0.583,0.138-0.879,0.186c-0.211,0.033-0.333,0.146-0.415,0.329c-0.193,0.42-0.412,0.83-0.572,1.26
	c-0.181,0.484-0.489,0.787-0.976,0.973c-0.769,0.295-1.54,0.471-2.348,0.217c-0.272-0.089-0.517-0.265-0.781-0.377
	c-0.588-0.25-1.192-0.469-1.772-0.731c-0.392-0.175-0.532-0.524-0.499-0.944c0.049-0.565,0.278-1.067,0.657-1.461
	c0.499-0.52,1.057-0.98,1.589-1.467c0.585-0.537,1.217-1.034,1.739-1.625c0.715-0.81,0.937-1.787,0.618-2.844
	c-0.27-0.886-0.825-1.594-1.502-2.208c-0.499-0.451-1.016-0.884-1.53-1.316c-0.138-0.115-0.146-0.211-0.008-0.311
	c0.193-0.143,0.395-0.277,0.601-0.405c0.216-0.132,0.254-0.257,0.066-0.417c-0.214-0.182-0.453-0.34-0.695-0.482
	c-0.494-0.29-1.054-0.197-1.589-0.235c-0.489-0.036-0.985,0.023-1.482,0.018c-0.283-0.001-0.573-0.013-0.845-0.078
	c-1.324-0.317-2.493-0.974-3.638-1.68c-0.064-0.04-4.133,7.982-2.941,9.685c0.061,0.086,0.069,0.171,0.043,0.245
	c0.043,0.008,0.084,0.015,0.127,0.021c0.494,0.043,0.988,0.063,1.482,0.084c0.598,0.025,1.013,0.295,1.225,0.865
	c0.176,0.474,0.364,0.94,0.713,1.319c0.086,0.094,0.188,0.178,0.27,0.254c0-0.428-0.025-0.84,0.013-1.248
	c0.013-0.135,0.168-0.341,0.285-0.361c0.191-0.033,0.166,0.193,0.186,0.328c0.061,0.405,0.114,0.81,0.17,1.217
	c0.033,0.007,0.066,0.015,0.099,0.023c0.104-0.239,0.209-0.479,0.318-0.731c0.245,0.094,0.395,0.254,0.504,0.479
	c0.117,0.244,0.043,0.481-0.018,0.713c-0.173,0.674-0.435,1.286-1.12,1.622c-0.323,0.161-0.637,0.362-0.917,0.593
	c-0.184,0.153-0.356,0.369-0.433,0.593c-0.221,0.629-0.053,1.214,0.316,1.749c0.166,0.24,0.346,0.471,0.52,0.706
	c0.305,0.41,0.479,0.86,0.458,1.38c-0.01,0.26-0.008,0.52,0.015,0.779c0.018,0.188,0.082,0.374,0.125,0.563
	c0.031-0.002,0.061-0.005,0.089-0.005c0.104-0.313,0.214-0.622,0.308-0.935c0.15-0.52,0.497-0.825,1.016-0.874
	c0.501-0.048,0.677,0.074,0.958,0.669c0.018,0.036,0.033,0.074,0.051,0.112c0.303,0.659,0.753,1.189,1.388,1.551
	c0.051,0.028,0.109,0.048,0.208,0.091c-0.082-0.186-0.15-0.321-0.201-0.46c-0.214-0.591-0.025-0.901,0.593-0.985
	c0.064-0.008,0.13-0.016,0.194-0.01c0.692,0.053,1.397,0.015,2.052,0.326c0.163,0.079,0.359,0.104,0.542,0.125
	c0.25,0.025,0.413,0.14,0.535,0.359c0.3,0.545,0.514,1.118,0.639,1.726c0.022,0.104,0.074,0.252,0.152,0.285
	c0.436,0.188,0.787,0.586,1.316,0.55c0.051-0.002,0.104,0.041,0.153,0.064c0.588,0.275,1.174,0.555,1.765,0.82
	c0.137,0.061,0.298,0.069,0.493,0.114c-0.043-0.127-0.056-0.193-0.086-0.247c-0.193-0.346-0.375-0.7-0.594-1.034
	c-0.183-0.28-0.211-0.532-0.048-0.838c0.208-0.395,0.369-0.814,0.147-1.273c-0.025-0.056-0.011-0.132-0.013-0.199l0.076-0.046
	c0.16,0.173,0.331,0.341,0.474,0.527c0.112,0.14,0.229,0.201,0.412,0.201c0.854-0.003,1.704-0.046,2.528-0.293
	c0.158-0.048,0.25-0.008,0.306,0.14c0.112,0.295,0.234,0.585,0.331,0.886c0.074,0.231,0.114,0.474,0.186,0.784
	c0.087-0.14,0.156-0.207,0.174-0.285c0.097-0.393,0.206-0.784,0.262-1.182c0.071-0.484,0.054-0.965-0.104-1.443
	c-0.135-0.413-0.241-0.838-0.313-1.266c-0.041-0.245-0.074-0.448-0.369-0.476c0.119-0.199,0.135-0.207,0.277-0.051
	c0.349,0.372,0.685,0.754,0.843,1.307c0.038-0.084,0.061-0.115,0.066-0.15c0.102-0.914-0.021-1.785-0.54-2.564
	C51.501,69.161,51.297,68.965,51.091,68.79z"/>
<path  d="M42.717,33.32c-0.204-0.033-0.407-0.06-0.613-0.073c-0.229-0.014-0.326-0.117-0.375-0.328
	c-0.079-0.34-0.231-0.641-0.537-0.84c-0.395-0.258-0.878-0.18-1.138,0.189c0.082,0.098,0.265,0.138,0.268,0.28
	c0.99,0.742,1.642,1.897,2.2,2.976c0.909,1.767,2.078,2.943,3.776,3.991c0.016-0.014,0.025-0.027,0.046-0.041
	c0.288-0.234,0.456-0.23,0.716,0.038c0.203,0.211,0.395,0.437,0.605,0.672c0.01-0.066,0.021-0.112,0.023-0.159
	c0.03-0.616,0.061-1.231,0.086-1.849c0.028-0.663,0.255-1.245,0.692-1.75c0.518-0.595,1.136-1.057,1.788-1.493
	c0.333-0.223,0.651-0.488,0.914-0.791c0.292-0.344,0.514-0.75,0.791-1.163c-0.201,0-0.328,0.006-0.455-0.002
	c-0.174-0.013-0.247-0.094-0.181-0.277c0.119-0.333,0.396-0.534,0.776-0.495c0.231,0.022,0.458,0.11,0.718,0.177
	c-0.038-0.097-0.051-0.203-0.109-0.266c-0.275-0.298-0.265-0.625-0.184-0.998c0.107-0.494,0.515-1,1.019-1.095
	c0.532-0.101,1.069-0.168,1.609-0.218c0.509-0.044,0.975-0.144,1.321-0.564c0.13-0.159,0.311-0.277,0.445-0.434
	c0.112-0.131,0.237-0.279,0.277-0.439c0.092-0.369,0.141-0.749,0.196-1.125c0.018-0.131,0.104-0.291-0.102-0.37
	c-0.016-0.005-0.018-0.093-0.003-0.132c0.147-0.365,0.204-0.745,0.229-1.135c0.021-0.293,0.184-0.353,0.438-0.19
	c0.146,0.094,0.28,0.208,0.477,0.354c0-0.147,0.008-0.241-0.003-0.332c-0.099-1.045-1.214-1.688-2.187-1.258
	c-0.15,0.066-0.298,0.137-0.446,0.208c-0.018-0.017-0.032-0.033-0.048-0.05c0.066-0.151,0.122-0.308,0.201-0.452
	c0.092-0.169,0.059-0.301-0.063-0.44c-0.117-0.131-0.214-0.276-0.331-0.43c0.415-0.215,0.797-0.128,1.212,0.004
	c-0.033-0.1-0.044-0.154-0.069-0.201c-0.272-0.543-0.73-0.876-1.316-0.926c-0.501-0.043-1.013,0.037-1.522,0.079
	c-0.333,0.028-0.702,0.012-0.81,0.451c-0.298-0.173-0.308-0.25-0.071-0.406c0.161-0.108,0.326-0.214,0.499-0.299
	c0.148-0.074,0.311-0.116,0.537-0.197c-0.149-0.084-0.236-0.157-0.336-0.186c-0.201-0.06-0.412-0.085-0.613-0.143
	c-0.838-0.239-1.568,0.071-2.271,0.463c-0.15,0.084-0.29,0.257-0.352,0.42c-0.124,0.337-0.178,0.704-0.295,1.045
	c-0.1,0.283-0.003,0.485,0.173,0.685c0.472,0.542,0.792,1.136,0.904,1.873c0.15,0.99-0.239,2.043-1.067,2.612
	c-0.596,0.409-1.199,0.811-1.759,1.265c-1.278,1.039-2.528,2.112-3.799,3.159c-0.268,0.22-0.575,0.392-0.873,0.569
	c-0.209,0.124-0.158,0.144-0.402,0.094c-0.013-0.002-0.025-0.005-0.038-0.008c0.063,0.092,0.122,0.186,0.181,0.282
	C43.234,33.541,42.987,33.431,42.717,33.32z"/>
<path  d="M56.224,49.977c-0.013-0.07,0.011-0.146,0.019-0.219c0.056,0.053,0.14,0.097,0.16,0.162
	c0.071,0.223,0.13,0.451,0.178,0.681c0.074,0.354,0.136,0.71,0.201,1.075c0.232-0.142,0.291-0.207,0.356-0.591
	c0.092-0.534,0.234-1.077,0.204-1.606c-0.033-0.548-0.239-1.086-0.385-1.625c-0.043-0.156-0.027-0.236,0.128-0.301
	c0.155-0.066,0.203,0.016,0.254,0.13c0.136,0.303,0.288,0.599,0.408,0.907c0.063,0.163,0.071,0.348,0.102,0.521
	c0.01,0.066,0.015,0.133,0.022,0.199c0.095-0.062,0.143-0.133,0.171-0.211c0.392-1.13,0.146-2.215-0.29-3.265
	c-0.232-0.558-0.553-1.078-0.838-1.614c-0.089-0.164-0.219-0.242-0.402-0.13c-0.315,0.195-0.664,0.356-0.944,0.596
	c-0.583,0.499-1.248,0.778-1.996,0.875c-0.871,0.112-1.709,0.056-2.427-0.525c-0.32-0.261-0.621-0.546-0.939-0.813
	c-1.359-1.139-2.681-2.319-3.829-3.679c-0.023,0.005-0.049,0.002-0.071-0.016c-0.258-0.182-0.418-0.374-0.507-0.578
	c-1.313-0.823-2.628-1.828-3.379-3.207c-0.771-1.412-1.382-3.107-2.862-3.939c-0.025-0.014-0.048-0.032-0.066-0.049
	c-0.041-0.024-0.079-0.052-0.109-0.084c-0.25-0.253-0.479-0.525-0.706-0.8c-0.053-0.065-0.061-0.167-0.107-0.302
	c0.415,0.099,0.614,0.374,0.855,0.624c0.002-0.23-0.005-0.456-0.074-0.662c-0.252-0.777-0.669-1.418-1.487-1.717
	c-0.181-0.066-0.349-0.169-0.512-0.275c-0.11-0.07-0.196-0.174-0.291-0.262c0.008-0.023,0.018-0.046,0.028-0.07
	c0.367,0.131,0.703,0.043,1.044-0.08c0.054-0.02,0.171,0.043,0.217,0.102c0.089,0.113,0.147,0.251,0.224,0.375
	c0.081,0.13,0.168,0.255,0.229,0.35c0.153-0.25,0.254-0.507,0.436-0.682c0.275-0.27,0.466-0.191,0.552,0.173
	c0.01,0.04,0.015,0.081,0.025,0.12c0.109,0.429,0.767,0.823,1.169,0.688c-0.173-0.383-0.041-0.724,0.16-1.051
	c0.219-0.352,0.43-0.708,0.662-1.05c0.173-0.252,0.16-0.521,0.112-0.794c-0.025-0.157-0.081-0.311-0.13-0.462
	c-0.086-0.265-0.208-0.504-0.512-0.612c-0.028,0.081-0.043,0.143-0.068,0.2c-0.237,0.581-0.558,0.629-1.006,0.383
	c-0.084-0.045-0.155-0.114-0.234-0.173c-0.315-0.241-0.652-0.396-1.062-0.246c-0.023,0.009-0.056-0.012-0.041-0.008
	c0.104-0.34,0.201-0.669,0.311-0.994c0.018-0.048,0.102-0.106,0.153-0.106c0.553,0.004,1.105,0.017,1.658,0.032
	c0.303,0.009,0.486,0.211,0.481,0.514c0,0.094,0.008,0.188,0.013,0.314c0.115-0.028,0.201-0.042,0.28-0.07
	c0.637-0.224,0.929-0.801,1.243-1.312c0.336-0.547,0.203-1.195,0.132-1.808C43.114,22.81,43,22.59,43.053,22.421
	c0.213-0.667,0.186-1.328,0.038-1.993c-0.099-0.455-0.222-0.569-0.69-0.604c-0.354-0.025-0.713-0.012-1.067,0.021
	c-0.229,0.021-0.413,0.014-0.601-0.151c-0.417-0.362-0.921-0.542-1.472-0.568c-0.397-0.018-0.794,0.004-1.191-0.013
	c-0.094-0.004-0.237-0.069-0.267-0.143c-0.37-0.937-1.128-1.354-2.042-1.595c-0.173-0.046-0.344-0.172-0.471-0.303
	c-0.199-0.201-0.361-0.439-0.535-0.664c-0.199-0.258-0.456-0.428-0.764-0.54c-0.647-0.234-1.352-0.362-1.821-0.993
	c-0.254,0.511-0.163,0.956,0.127,1.425c-0.15-0.016-0.257-0.01-0.351-0.04c-0.578-0.184-1.164-0.352-1.731-0.568
	c-0.69-0.266-1.373-0.411-2.104-0.146c-0.448,0.162-0.914,0.276-1.38,0.386c-0.122,0.029-0.27-0.037-0.405-0.06
	c0.066-0.101,0.123-0.213,0.201-0.301c0.153-0.166,0.188-0.399,0.074-0.634c-0.102-0.206-0.295-0.304-0.552-0.265
	c0.082,0.337-0.102,0.491-0.395,0.607c-0.578,0.23-0.881,0.908-0.706,1.511c0.025,0.09,0.043,0.185,0.069,0.294
	c-0.929,0.255-1.828,0.523-2.74,0.738c-0.41,0.097-0.646-0.074-0.781-0.479c-0.11-0.33-0.168-0.676-0.255-1.04
	c-0.104,0.099-0.247,0.196-0.344,0.327c-0.593,0.803-0.667,1.686-0.331,2.603c0.161,0.432,0.463,0.723,0.965,0.726
	c0.188,0,0.158,0.117,0.123,0.234c-0.084,0.295-0.171,0.591-0.26,0.885c-0.13,0.417-0.232,0.847-0.405,1.245
	c-0.199,0.451-0.379,0.495-0.838,0.325c-0.417-0.153-0.83-0.325-1.255-0.452c-0.298-0.088-0.614-0.126-0.912,0.078
	c0.776,0.68,0.685,0.853,0.843,1.582c0.15,0.705,0.489,1.043,1.212,1.111c0.082,0.007,0.163,0.024,0.25,0.038
	c-0.094,0.264-0.193,0.486-0.257,0.719c-0.208,0.772-0.097,1.542,0.145,2.277c0.293,0.891,0.652,1.761,1.003,2.631
	c0.377,0.939,0.812,1.859,0.894,2.89c0.092,1.195-0.053,2.333-0.787,3.334c-0.021,0.028-0.028,0.067-0.048,0.118
	c0.68,0.073,1.281-0.126,1.902-0.411c0.066,0.417,0.132,0.79,0.181,1.164c0.102,0.773,0.385,1.465,0.97,1.991
	c0.405,0.365,0.585,0.807,0.604,1.33c0.059,1.506-0.143,2.984-0.604,4.414c-0.565,1.747-1.541,3.275-2.872,4.538
	c-0.789,0.748-1.647,1.429-2.383,2.229c-0.611,0.66-1.092,1.384-2.029,1.583c-1.021,0.218-2.064-0.201-2.643-1.071
	c-1.782-2.672,0.377-6.071,1.833-8.328c1.79-2.773,3.308-5.277,3.076-8.724c-0.056-0.847-0.229-1.67-0.619-2.436
	c-0.596-1.172-1.767-2.056-3.096-2.164c-1.747-0.143-3.152,1.1-4.565,1.912c-0.585,0.336-1.212,0.548-1.897,0.514
	c-0.42-0.021-0.57-0.299-0.369-0.671c0.074-0.132,0.163-0.256,0.275-0.429c-0.132,0.015-0.216,0.018-0.298,0.034
	c-0.71,0.147-1.225,0.564-1.604,1.168c-0.069,0.107-0.188,0.25-0.29,0.253c-0.532,0.019-1.082,0.077-1.597-0.025
	c-2.243-0.44-2.694-3.53-2.77-5.375c-0.015-0.357,0.023-0.719,0.036-1.078c-0.193,0.182-0.377,0.387-0.489,0.626
	c-1.182,2.552-3.809,8.033-0.021,9.808c0.186,0.086,0.369,0.185,0.573,0.286c-0.649,0.625-1.028,1.306-0.743,2.208
	c-0.104-0.328,1.876-0.816,2.144-0.792c0.871,0.075,1.584,0.451,2.381-0.168c0.094-0.074,0.214-0.117,0.351-0.192
	c-0.007,0.493-0.025,0.925-0.44,1.284c1.408,0.087,2.304-1.04,2.783-2.227c0.074-0.186,0.173-0.186,0.318-0.099
	c0.224,0.136,0.211,0.344,0.129,0.537c-0.183,0.437-0.392,0.862-0.598,1.312c0.061-0.009,0.145-0.012,0.224-0.033
	c0.395-0.105,0.675-0.378,0.937-0.67c0.616-0.681,1.072-1.461,1.477-2.28c0.466-0.946,0.899-1.933,1.431-2.845
	c0.387-0.67,1.133-1.487,2.001-1.344c0.698,0.116,1.283,0.456,1.736,0.994c0.535,0.631,0.372,1.538-0.331,1.976
	c-0.087,0.054-0.173,0.104-0.257,0.157c0,0.028,0,0.056,0,0.085c0.221,0.076,0.443,0.162,0.669,0.227
	c0.291,0.084,0.524,0.221,0.606,0.535c0.318,1.22-0.631,2.661-1.156,3.711c-1.777,3.549-5.459,6.703-5.625,10.885
	c-0.122,3.093,2.442,7.597,6.05,6.77c0.132-0.03,0.262-0.059,0.428-0.094c-0.008,0.099-0.01,0.17-0.018,0.236
	c-0.229,2.142-0.089,3.832,0.896,5.788c0.7,1.39,1.938,2.948,1.902,4.575c-0.018,0.764-0.581,1.176-1.329,1.067
	c-0.909-0.132-1.986-1.25-2.134-2.235c-0.007-0.051-0.028-0.097-0.066-0.224c-0.219,0.354-0.44,0.631-0.576,0.945
	c-0.272,0.629-0.779,0.858-1.403,0.917c-0.54,0.051-0.973,0.29-1.306,0.715c-0.486,0.619-0.771,1.326-0.769,2.108
	c0,0.843,0.051,1.688,0.125,2.525c0.099,1.12,0.076,2.197-0.736,3.094c-0.043,0.046-0.056,0.12-0.097,0.216
	c0.42-0.023,0.789-0.046,1.161-0.064c0.451-0.025,0.873,0.066,1.242,0.336c0.591,0.433,0.838,1.059,0.952,1.747
	c0.074,0.44,0.104,0.886,0.181,1.324c0.068,0.379,0.326,0.628,0.68,0.848c-0.01-0.094-0.015-0.14-0.021-0.186
	c-0.069-0.44,0.28-0.759,0.71-0.624c0.161,0.048,0.329,0.158,0.433,0.288c0.158,0.191,0.291,0.415,0.39,0.642
	c0.413,0.962,0.57,1.973,0.578,3.014c0.002,0.22-0.051,0.316-0.291,0.334c-0.41,0.033-0.697,0.28-0.726,0.604
	c-0.046,0.565-0.074,1.133-0.109,1.7c-0.018,0.275,0.082,0.518,0.262,0.711c0.629,0.675,1.222,1.385,1.94,1.973
	c0.112,0.092,0.247,0.158,0.415,0.266c0-0.128,0.013-0.191,0-0.247c-0.066-0.318-0.147-0.634-0.206-0.952
	c-0.021-0.103-0.033-0.26,0.025-0.316c0.199-0.195,0.275-0.43,0.318-0.692c0.008-0.046,0.14-0.127,0.171-0.109
	c0.366,0.196,0.774,0.331,1.057,0.675c0.206,0.247,0.44,0.479,0.692,0.68c0.158,0.127,0.367,0.201,0.56,0.272
	c0.127,0.046,0.224,0,0.191-0.173c-0.036-0.184-0.046-0.372-0.086-0.553c-0.086-0.405-0.13-0.789,0.163-1.148
	c0.153-0.184,0.247-0.415,0.372-0.621c0.028-0.046,0.079-0.109,0.12-0.109c0.231,0.008,0.484-0.023,0.69,0.056
	c0.456,0.179,0.822,0.484,1.034,0.947c0.082,0.181,0.183,0.354,0.3,0.583c0.062-0.132,0.107-0.206,0.133-0.287
	c0.206-0.635,0.091-1.245-0.123-1.856c-0.051-0.146-0.051-0.315-0.046-0.474c0.008-0.179,0.094-0.26,0.293-0.196
	c0.102,0.033,0.232,0.049,0.331,0.016c0.257-0.089,0.379,0.028,0.466,0.244c0.036,0.089,0.084,0.176,0.109,0.268
	c0.082,0.282,0.15,0.565,0.234,0.876c0.048-0.082,0.092-0.138,0.122-0.201c0.558-1.166,0.107-2.58-0.634-3.442
	c-0.041-0.049-0.099-0.089-0.158-0.115c-0.347-0.158-0.685-0.344-1.047-0.456c-0.471-0.146-0.962-0.232-1.324,0.27
	c-0.031,0.041-0.178,0.049-0.234,0.013c-0.275-0.183-0.578-0.346-0.794-0.588c-0.506-0.555-0.789-1.243-0.955-1.971
	c-0.239-1.059-0.247-2.141-0.293-3.218c-0.002-0.059,0.018-0.117,0.031-0.209c0.102,0.054,0.173,0.089,0.242,0.13
	c1.087,0.614,2.218,1.11,3.468,1.276c0.855,0.114,1.691,0.046,2.467-0.359c0.789-0.412,1.373-1.057,1.856-1.787
	c0.777-1.169,1.217-2.465,1.398-3.853c0.028-0.211,0.063-0.422,0.1-0.644c0.481,0.104,0.769,0.417,1.11,0.695
	c0.046-0.194,0.071-0.375,0.063-0.555c-0.038-0.957-0.326-1.864-0.598-2.772c-0.675-2.256-0.585-4.807-0.71-7.167
	c-0.102-1.963,0.079-3.804,0.779-5.645c0.708-1.867,1.838-3.521,2.625-5.352c0.028-0.13,0.061-0.258,0.104-0.382
	c0.153-0.428,0.53-0.53,0.889-0.257c0.199,0.153,0.379,0.331,0.573,0.492c0.071,0.061,0.158,0.106,0.214,0.141
	c0.097-0.508,0.137-1.009,0.298-1.469c0.28-0.803,0.85-1.426,1.449-2.017c0.125-0.122,0.208-0.064,0.292,0.055
	c0.237,0.343,0.558,0.588,0.935,0.759c0.346,0.155,0.7,0.301,1.052,0.443c0.076,0.032,0.163,0.036,0.244,0.052
	c-0.013-0.11-0.061-0.171-0.104-0.234c-0.405-0.611-0.774-1.243-0.532-2.015c0.097-0.305,0.244-0.601,0.42-0.871
	c0.425-0.663,0.84-1.33,1.054-2.099c0.041-0.143,0.125-0.158,0.237-0.086c0.25,0.153,0.506,0.295,0.741,0.467
	c0.379,0.275,0.596,0.658,0.662,1.122c0.043,0.289,0.053,0.584,0.12,0.868c0.099,0.439,0.208,0.879,0.359,1.304
	c0.082,0.23,0.272,0.406,0.527,0.527c0.025-0.109,0.043-0.186,0.061-0.264c0.166-0.778,0.632-1.323,1.332-1.667
	c0.827-0.406,1.518-0.023,1.647,0.89c0.059,0.41,0.021,0.798-0.184,1.183c0.522-0.164,1.019-0.353,1.521-0.535
	c0.48-0.174,1.071-0.235,1.38,0.131c0.114,0.138,0.26,0.251,0.358,0.396c0.084,0.122,0.155,0.271,0.166,0.414
	c0.038,0.469,0.059,0.939,0.061,1.409c0.006,0.771,0.407,1.332,0.93,1.832c0.071,0.067,0.188,0.093,0.288,0.122
	c0.208,0.063,0.422,0.109,0.631,0.172c0.596,0.182,1.187,0.382,1.787,0.546c0.214,0.058,0.448,0.034,0.673,0.048
	c0.008-0.027,0.015-0.055,0.022-0.083c-0.061-0.083-0.114-0.172-0.186-0.246c-0.219-0.23-0.44-0.453-0.665-0.678
	c-0.356-0.358-0.384-0.848-0.053-1.292c0.046,0.075,0.099,0.138,0.119,0.209c0.104,0.327,0.349,0.495,0.654,0.597
	c0.209,0.068,0.438,0.104,0.616,0.219c0.237,0.151,0.466,0.235,0.746,0.214c0.056-0.004,0.168,0.096,0.173,0.153
	c0.036,0.501,0.057,1.005-0.132,1.488c-0.019,0.047-0.025,0.099-0.041,0.159c0.049-0.005,0.074-0.001,0.095-0.01
	c0.045-0.021,0.089-0.043,0.127-0.071c0.741-0.549,1.125-1.31,1.15-2.203C56.483,51.03,56.309,50.503,56.224,49.977z"/>
<path  d="M165.388,86.902c-0.667,0.063-1.15,0.109-1.433,0.109c-0.156,0-0.334-0.008-0.472-0.122
	c-0.106-0.092-0.224-0.265-0.188-0.567c0.141-1.156,3.211-5.225,6.02-7.29c-3.361,0.219-6.503,1.339-10.02,3.549
	c-1.729,1.087-3.582,2.251-5.637,3.073c1.125,0.979,2.256,1.948,3.389,2.9c1.151,0.952,2.325,1.907,3.48,2.839
	c0.011,0.005,0.016,0.016,0.023,0.023c0.013,0.01,0.025,0.021,0.035,0.032v0.003c0.031,0.036,0.051,0.076,0.066,0.114
	c0.003,0.011,0.005,0.021,0.008,0.031c0.013,0.038,0.021,0.081,0.018,0.125l0,0c0,0.002,0,0.005,0,0.005
	c-0.003,0.043-0.013,0.084-0.028,0.124c-0.005,0.008-0.007,0.016-0.013,0.025c-0.018,0.039-0.04,0.077-0.071,0.107
	c-0.002,0.003-0.002,0.005-0.002,0.005c-3.018,3.018-6.164,5.988-9.365,8.858c4.879-1.105,9.088-3.978,13.64-7.32
	c0.364-0.268,0.733-0.542,1.103-0.817c2.992-2.228,6.072-4.524,9.716-5.25c-1.258-0.565-3.073-0.851-5.423-0.851
	C168.395,86.609,166.585,86.785,165.388,86.902z"/>
<path d="M71.343,91.707c0-0.016,0.008-0.025,0.01-0.041c0.003-0.025,0.008-0.054,0.016-0.079
	c0.008-0.021,0.013-0.04,0.023-0.061c0.015-0.03,0.032-0.057,0.056-0.082c0.01-0.013,0.022-0.025,0.035-0.035
	c0.006-0.005,0.011-0.013,0.016-0.016c1.171-0.944,2.345-1.899,3.483-2.841c1.128-0.947,2.251-1.912,3.365-2.883
	c-1.583-0.634-3.146-1.512-4.804-2.563c-3.073-1.948-6.503-3.766-10.826-4.071c2.806,2.067,5.871,6.131,6.011,7.287
	c0.039,0.303-0.081,0.476-0.188,0.564c-0.135,0.117-0.313,0.125-0.471,0.125c-0.282,0-0.764-0.046-1.431-0.109
	c-1.199-0.117-3.007-0.293-4.848-0.293c-2.348,0-4.166,0.285-5.421,0.851c3.769,0.743,6.959,3.154,10.052,5.489
	c0.616,0.464,1.194,0.901,1.782,1.329c3.61,2.625,7.816,5.467,12.619,6.566c-3.198-2.869-6.332-5.828-9.329-8.825
	C71.401,91.946,71.343,91.834,71.343,91.707z"/>
<path  d="M120.986,96.13c-0.109-0.085-0.241-0.148-0.396-0.191c-0.153-0.043-0.324-0.062-0.512-0.054
	c-0.156,0.008-0.306,0.038-0.446,0.092c-0.14,0.054-0.265,0.122-0.377,0.204l0.071,1.51c0.117,0.079,0.25,0.14,0.397,0.188
	c0.147,0.048,0.298,0.068,0.451,0.061c0.188-0.01,0.356-0.04,0.504-0.097c0.147-0.056,0.274-0.132,0.379-0.229
	c0.103-0.095,0.181-0.207,0.234-0.337c0.054-0.129,0.076-0.27,0.069-0.422c-0.008-0.153-0.044-0.291-0.107-0.415
	C121.188,96.318,121.099,96.214,120.986,96.13z"/>
<path  d="M115.568,96.27c-0.106-0.092-0.234-0.163-0.385-0.217c-0.149-0.053-0.317-0.081-0.506-0.084
	c-0.179-0.002-0.342,0.021-0.497,0.069c-0.152,0.048-0.285,0.117-0.396,0.203c-0.11,0.087-0.199,0.193-0.263,0.321
	c-0.066,0.125-0.1,0.265-0.102,0.417c-0.003,0.15,0.027,0.291,0.089,0.421c0.059,0.127,0.146,0.236,0.252,0.328
	c0.109,0.094,0.239,0.165,0.393,0.217c0.149,0.051,0.315,0.078,0.491,0.081c0.188,0.003,0.358-0.021,0.512-0.066
	c0.15-0.046,0.28-0.114,0.39-0.203c0.109-0.09,0.193-0.196,0.254-0.323c0.062-0.125,0.095-0.266,0.095-0.418
	c0.002-0.15-0.023-0.29-0.082-0.42C115.757,96.468,115.676,96.358,115.568,96.27z"/>
<path  d="M134.178,94.207c-0.198-0.081-0.442-0.092-0.73-0.03c-0.275,0.059-0.496,0.168-0.662,0.328
	c-0.168,0.158-0.265,0.349-0.295,0.565l2.146-0.458C134.532,94.424,134.379,94.289,134.178,94.207z"/>
<path  d="M158.32,92.509c0.086-0.056,0.173-0.112,0.26-0.165c0.328-0.209,0.651-0.42,0.973-0.635
	c0.015-0.01,0.03-0.02,0.046-0.03c-1.021-0.825-2.05-1.667-3.068-2.508c-2.017-1.693-4.025-3.439-6.001-5.207
	c0.891-0.8,1.746-1.632,2.571-2.498c0.575,0.125,1.676,0.224,2.902-0.402c0.896-0.464,1.665-1.235,2.189-1.895
	s0.813-1.197,0.813-1.197c-0.003-0.005-1.599-0.341-3.3,0.596c-0.046,0.026-0.089,0.054-0.132,0.079
	c1.219-1.512,2.342-3.099,3.363-4.751c0.234,0.007,0.558,0.002,0.944-0.051c0.807-0.114,1.895-0.453,2.938-1.349
	c1.041-0.894,1.815-2.174,2.286-3.226c0.479-1.051,0.672-1.866,0.672-1.866s-0.555,0.031-1.339,0.288
	c-0.789,0.259-1.806,0.735-2.771,1.622c-0.17,0.158-0.331,0.323-0.488,0.491c0.781-1.612,1.466-3.269,2.052-4.959
	c0.27-0.046,0.665-0.135,1.133-0.313c0.879-0.338,2.017-1.006,2.954-2.302c0.939-1.296,1.459-2.963,1.698-4.285
	c0.244-1.324,0.231-2.301,0.231-2.299c0-0.002-0.611,0.193-1.416,0.71c-0.81,0.517-1.81,1.342-2.65,2.602
	c-0.196,0.295-0.377,0.604-0.542,0.914c0.315-1.411,0.565-2.836,0.746-4.272c0.313-0.114,0.819-0.336,1.41-0.724
	c0.976-0.644,2.177-1.767,2.948-3.622c0.777-1.851,0.917-4.051,0.803-5.743c-0.107-1.698-0.438-2.886-0.436-2.885
	c-0.003-0.002-0.667,0.433-1.472,1.314c-0.808,0.882-1.752,2.189-2.394,3.957c-0.204,0.562-0.364,1.138-0.499,1.712
	c-0.008-1.925-0.135-3.85-0.382-5.759c0.229-0.166,0.563-0.435,0.927-0.832c0.654-0.718,1.396-1.858,1.66-3.489
	c0.268-1.629-0.025-3.409-0.418-4.74c-0.392-1.334-0.86-2.227-0.857-2.227c0-0.001-0.469,0.465-0.971,1.318
	c-0.501,0.854-1.036,2.079-1.227,3.628c-0.049,0.4-0.071,0.803-0.079,1.203c-0.413-1.673-0.917-3.325-1.521-4.941
	c-0.143-0.383-0.29-0.765-0.442-1.146c0.143-0.181,0.331-0.446,0.517-0.793c0.379-0.708,0.741-1.766,0.642-3.113
	c-0.1-1.347-0.659-2.702-1.209-3.687c-0.551-0.988-1.075-1.615-1.075-1.615c0-0.001-0.3,0.455-0.555,1.229s-0.471,1.856-0.334,3.138
	c0.025,0.244,0.066,0.489,0.115,0.729c-1.072-2.047-2.3-4.012-3.667-5.874c0.074-0.169,0.155-0.394,0.227-0.669
	c0.161-0.645,0.242-1.563-0.092-2.62c-0.336-1.054-1.03-2.028-1.646-2.713c-0.616-0.688-1.146-1.096-1.146-1.096
	s-0.162,0.42-0.234,1.09c-0.068,0.668-0.051,1.58,0.299,2.587c0.04,0.118,0.086,0.235,0.135,0.35
	c-0.436-0.497-0.881-0.983-1.337-1.46c-0.054-0.283-0.135-0.626-0.257-1.008c-0.326-1.018-0.968-2.308-2.101-3.279
	c-1.131-0.974-2.501-1.41-3.555-1.576c-1.057-0.168-1.808-0.081-1.808-0.081s0.217,0.724,0.67,1.655
	c0.458,0.935,1.141,2.069,2.174,2.958c1.034,0.886,2.256,1.386,3.246,1.697c0.364,0.113,0.695,0.199,0.968,0.261
	c0.448,0.468,0.886,0.946,1.312,1.433c-0.104-0.06-0.212-0.116-0.321-0.168c-0.941-0.444-1.828-0.471-2.467-0.391
	c-0.642,0.082-1.041,0.269-1.041,0.269s0.351,0.466,0.914,1.04c0.563,0.574,1.331,1.263,2.225,1.713
	c0.894,0.448,1.762,0.572,2.414,0.582c0.274,0.005,0.509-0.012,0.689-0.033c1.34,1.825,2.541,3.749,3.593,5.754
	c-0.168-0.169-0.344-0.333-0.529-0.481c-0.985-0.779-2.02-1.042-2.793-1.113c-0.771-0.067-1.291,0.051-1.291,0.051
	s0.288,0.63,0.789,1.444c0.502,0.815,1.204,1.819,2.121,2.588c0.914,0.769,1.889,1.162,2.65,1.367
	c0.369,0.099,0.688,0.151,0.917,0.179c0.149,0.372,0.295,0.746,0.433,1.123c0.588,1.575,1.082,3.184,1.484,4.814
	c-0.186-0.333-0.397-0.656-0.634-0.954c-0.945-1.188-2.096-1.766-2.984-2.043c-0.894-0.277-1.535-0.266-1.535-0.266
	c-0.003-0.001,0.176,0.803,0.54,1.875c0.369,1.075,0.911,2.421,1.759,3.568c0.851,1.147,1.872,1.893,2.701,2.359
	c0.454,0.256,0.843,0.42,1.105,0.52c0.242,1.872,0.366,3.758,0.374,5.646c-0.138-0.56-0.318-1.114-0.567-1.633
	c-0.784-1.644-1.986-2.616-2.959-3.161c-0.975-0.547-1.733-0.689-1.731-0.692c0,0,0,0.969,0.143,2.297
	c0.15,1.329,0.418,3.018,1.085,4.576c0.667,1.556,1.643,2.714,2.467,3.501c0.497,0.473,0.938,0.8,1.21,0.988
	c-0.176,1.397-0.42,2.79-0.726,4.165c-0.021-0.338-0.059-0.677-0.128-1.006c-0.303-1.446-1.046-2.457-1.695-3.091
	c-0.654-0.636-1.215-0.911-1.215-0.911s-0.201,0.776-0.354,1.871c-0.15,1.1-0.268,2.511-0.03,3.883
	c0.239,1.373,0.805,2.467,1.323,3.233c0.272,0.405,0.53,0.71,0.713,0.912c-0.57,1.655-1.242,3.274-2.003,4.85
	c0.03-0.219,0.056-0.438,0.063-0.659c0.043-1.283-0.367-2.294-0.779-2.971c-0.412-0.68-0.822-1.034-0.822-1.034
	s-0.342,0.619-0.703,1.522s-0.756,2.088-0.835,3.308c-0.076,1.217,0.188,2.261,0.479,3.012c0.138,0.354,0.28,0.639,0.393,0.843
	c-0.996,1.617-2.096,3.17-3.287,4.646c0.013-0.043,0.028-0.084,0.041-0.125c0.517-1.859-0.41-3.221-0.405-3.218
	c0,0-0.372,0.392-0.807,0.99c-0.438,0.604-0.947,1.411-1.22,2.294c-0.369,1.194-0.193,2.264-0.041,2.832
	c-0.83,0.874-1.698,1.716-2.597,2.518c-0.227-0.206-0.459-0.41-0.686-0.616c-9.726,4.68-21.181,7.154-33.152,7.154
	c-11.967,0-23.424-2.475-33.153-7.154c-0.227,0.206-0.455,0.41-0.685,0.616c-0.898-0.805-1.765-1.645-2.595-2.518
	c0.15-0.568,0.326-1.637-0.04-2.832c-0.272-0.883-0.782-1.69-1.22-2.291c-0.438-0.601-0.808-0.993-0.808-0.993
	c0.006-0.002-0.922,1.359-0.404,3.218c0.01,0.041,0.025,0.082,0.04,0.125c-1.191-1.479-2.291-3.03-3.286-4.646
	c0.111-0.204,0.254-0.489,0.392-0.843c0.29-0.751,0.555-1.795,0.479-3.012c-0.079-1.217-0.474-2.404-0.835-3.308
	c-0.364-0.904-0.703-1.522-0.703-1.522s-0.412,0.356-0.824,1.034c-0.41,0.677-0.82,1.69-0.777,2.974
	c0.006,0.219,0.031,0.438,0.064,0.657c-0.764-1.576-1.434-3.195-2.007-4.85c0.187-0.201,0.443-0.506,0.716-0.909
	c0.517-0.769,1.084-1.864,1.324-3.236c0.236-1.37,0.119-2.783-0.031-3.883c-0.152-1.095-0.354-1.871-0.354-1.871
	s-0.563,0.275-1.215,0.911c-0.649,0.634-1.393,1.645-1.695,3.091c-0.068,0.329-0.107,0.667-0.127,1.006
	c-0.306-1.377-0.551-2.768-0.727-4.165c0.272-0.188,0.713-0.516,1.207-0.988c0.828-0.787,1.803-1.944,2.47-3.501
	c0.667-1.558,0.935-3.247,1.082-4.576c0.146-1.327,0.148-2.295,0.146-2.297c0,0.003-0.756,0.146-1.734,0.692
	c-0.97,0.546-2.172,1.518-2.955,3.161c-0.25,0.52-0.431,1.073-0.568,1.633c0.008-1.888,0.133-3.774,0.374-5.646
	c0.263-0.099,0.652-0.263,1.105-0.52c0.827-0.466,1.851-1.212,2.698-2.357c0.851-1.148,1.394-2.494,1.763-3.57
	c0.364-1.072,0.539-1.875,0.539-1.876c0,0-0.642-0.01-1.535,0.268c-0.889,0.277-2.039,0.856-2.983,2.043
	c-0.239,0.298-0.448,0.619-0.637,0.953c0.404-1.631,0.898-3.239,1.484-4.813c0.14-0.377,0.285-0.751,0.436-1.123
	c0.229-0.028,0.545-0.08,0.916-0.179c0.759-0.205,1.736-0.599,2.65-1.367c0.914-0.769,1.617-1.772,2.121-2.588
	c0.502-0.812,0.789-1.444,0.789-1.444s-0.52-0.118-1.293-0.049c-0.771,0.069-1.806,0.332-2.791,1.111
	c-0.188,0.147-0.361,0.312-0.529,0.481c1.052-2.005,2.254-3.929,3.59-5.753c0.184,0.021,0.415,0.037,0.692,0.032
	c0.652-0.01,1.521-0.134,2.414-0.582c0.894-0.451,1.66-1.139,2.226-1.713c0.563-0.574,0.914-1.04,0.914-1.04
	s-0.402-0.187-1.042-0.269c-0.642-0.081-1.527-0.054-2.47,0.392c-0.109,0.051-0.216,0.108-0.32,0.168
	c0.428-0.488,0.865-0.966,1.312-1.435c0.274-0.063,0.605-0.148,0.97-0.261c0.99-0.311,2.213-0.811,3.246-1.697
	c1.031-0.889,1.714-2.023,2.172-2.958c0.456-0.931,0.672-1.655,0.672-1.655s-0.751-0.087-1.81,0.081
	c-1.052,0.166-2.422,0.603-3.552,1.576c-1.134,0.972-1.777,2.261-2.101,3.279c-0.122,0.382-0.204,0.726-0.258,1.008
	c-0.455,0.478-0.903,0.965-1.336,1.461c0.046-0.116,0.091-0.233,0.135-0.351c0.346-1.007,0.366-1.918,0.298-2.587
	c-0.071-0.669-0.234-1.09-0.234-1.09s-0.529,0.408-1.148,1.096c-0.616,0.685-1.312,1.658-1.645,2.713
	c-0.336,1.057-0.252,1.976-0.092,2.62c0.068,0.276,0.152,0.5,0.224,0.669c-1.364,1.864-2.592,3.828-3.663,5.875
	c0.046-0.242,0.086-0.486,0.114-0.732c0.138-1.281-0.079-2.363-0.334-3.137c-0.254-0.774-0.555-1.23-0.555-1.229
	c0-0.001-0.527,0.627-1.074,1.615c-0.553,0.985-1.113,2.34-1.21,3.686c-0.102,1.348,0.263,2.406,0.64,3.114
	c0.186,0.347,0.374,0.612,0.52,0.793c-0.153,0.381-0.301,0.763-0.443,1.146c-0.604,1.616-1.107,3.268-1.522,4.941
	c-0.005-0.4-0.03-0.803-0.079-1.203c-0.188-1.549-0.726-2.774-1.228-3.628c-0.499-0.853-0.967-1.319-0.967-1.318
	c0.002,0-0.466,0.893-0.858,2.227c-0.392,1.331-0.685,3.11-0.418,4.74c0.266,1.631,1.006,2.771,1.66,3.489
	c0.364,0.397,0.698,0.666,0.927,0.832c-0.246,1.909-0.374,3.834-0.382,5.76c-0.135-0.575-0.295-1.152-0.499-1.713
	c-0.642-1.767-1.586-3.074-2.393-3.957c-0.805-0.881-1.472-1.316-1.472-1.316c0.002,0.001-0.329,1.189-0.438,2.886
	c-0.114,1.693,0.028,3.893,0.802,5.744c0.771,1.855,1.977,2.978,2.948,3.622c0.594,0.388,1.101,0.61,1.414,0.724
	c0.181,1.436,0.43,2.862,0.745,4.275c-0.165-0.313-0.346-0.621-0.542-0.917c-0.843-1.26-1.841-2.085-2.65-2.602
	c-0.807-0.517-1.416-0.713-1.416-0.71c0-0.002-0.013,0.975,0.229,2.299c0.242,1.322,0.762,2.989,1.701,4.285
	c0.937,1.296,2.075,1.963,2.953,2.302c0.469,0.178,0.863,0.268,1.133,0.313c0.583,1.693,1.271,3.351,2.053,4.962
	c-0.158-0.17-0.318-0.336-0.489-0.494c-0.968-0.886-1.98-1.362-2.771-1.622c-0.786-0.26-1.339-0.288-1.339-0.288
	s0.193,0.815,0.67,1.866c0.474,1.052,1.245,2.333,2.289,3.226c1.044,0.896,2.131,1.235,2.938,1.349
	c0.388,0.054,0.711,0.059,0.945,0.051c1.018,1.652,2.144,3.239,3.363,4.751c-0.046-0.025-0.087-0.053-0.133-0.079
	c-1.701-0.937-3.297-0.601-3.302-0.596c0,0,0.29,0.538,0.814,1.197s1.293,1.431,2.189,1.895c1.228,0.626,2.327,0.527,2.902,0.402
	c0.822,0.866,1.681,1.698,2.569,2.498c-1.966,1.762-3.977,3.508-5.999,5.207c-1.005,0.83-2.036,1.673-3.067,2.508
	c0.013,0.008,0.027,0.021,0.043,0.028c0.323,0.217,0.649,0.43,0.98,0.639c0.084,0.054,0.165,0.107,0.249,0.16
	c0.272,0.171,0.55,0.339,0.828,0.507c2.416,1.459,5.1,2.824,8.241,4.196c0.046,0.021,0.089,0.041,0.135,0.062
	c9.744,4.17,21.191,6.375,33.107,6.375s23.365-2.205,33.106-6.375c0.046-0.021,0.09-0.041,0.133-0.059
	c3.145-1.375,5.83-2.74,8.252-4.201C157.777,92.845,158.05,92.677,158.32,92.509z M92.231,93.245
	c-0.087,0.257-0.225,0.483-0.41,0.677c-0.187,0.196-0.402,0.349-0.646,0.461c-0.247,0.109-0.515,0.173-0.803,0.188
	c-0.29,0.016-0.585-0.028-0.886-0.133l-2.439-0.843l0.212-0.615l0.435,0.149l0.889-2.581l-0.433-0.15l0.214-0.616l2.439,0.84
	c0.277,0.097,0.527,0.234,0.743,0.415c0.219,0.181,0.395,0.39,0.53,0.627c0.132,0.233,0.216,0.488,0.249,0.761
	S92.328,92.97,92.231,93.245z M97.311,94.788l-0.135,0.404l-2.883-0.738c-0.002,0.122,0.019,0.239,0.066,0.352
	c0.046,0.112,0.112,0.214,0.196,0.306c0.087,0.094,0.19,0.173,0.313,0.241c0.122,0.069,0.257,0.122,0.404,0.161
	c0.247,0.063,0.469,0.084,0.665,0.059c0.195-0.025,0.358-0.071,0.491-0.138l0.377,0.588c-0.219,0.109-0.474,0.181-0.764,0.214
	c-0.293,0.03-0.604,0.005-0.935-0.079c-0.25-0.065-0.481-0.165-0.692-0.303c-0.215-0.135-0.39-0.298-0.532-0.486
	s-0.239-0.395-0.296-0.626c-0.054-0.227-0.051-0.467,0.013-0.716c0.066-0.257,0.176-0.476,0.329-0.654
	c0.152-0.179,0.333-0.313,0.539-0.41s0.434-0.155,0.678-0.171c0.244-0.015,0.494,0.008,0.743,0.072
	c0.244,0.063,0.464,0.157,0.662,0.285c0.198,0.127,0.361,0.277,0.491,0.447c0.13,0.174,0.222,0.362,0.272,0.565
	C97.366,94.365,97.366,94.574,97.311,94.788z M103.047,95.075l-0.458-0.081l-1.337,2.421l-1.51-0.274l-0.4-2.737l-0.458-0.084
	l0.117-0.642l1.551,0.282l-0.114,0.642l-0.342-0.061l0.344,2.118l0.328,0.062l1.07-1.864l-0.342-0.062l0.115-0.644l1.55,0.282
	L103.047,95.075z M108.091,96.491l-0.076,0.42l-2.959-0.336c0.016,0.119,0.051,0.234,0.112,0.336
	c0.061,0.104,0.143,0.196,0.239,0.277c0.097,0.079,0.211,0.146,0.341,0.198c0.13,0.052,0.272,0.085,0.423,0.103
	c0.255,0.028,0.477,0.018,0.667-0.033c0.191-0.051,0.349-0.12,0.469-0.204l0.453,0.532c-0.201,0.138-0.443,0.242-0.729,0.313
	c-0.285,0.074-0.596,0.089-0.935,0.051c-0.257-0.03-0.501-0.097-0.728-0.203c-0.229-0.107-0.428-0.242-0.594-0.41
	c-0.165-0.166-0.293-0.359-0.379-0.578c-0.084-0.222-0.112-0.458-0.084-0.713c0.03-0.265,0.109-0.494,0.236-0.692
	c0.125-0.196,0.285-0.356,0.477-0.481c0.193-0.125,0.41-0.211,0.649-0.26c0.239-0.051,0.488-0.061,0.745-0.03
	c0.25,0.027,0.481,0.092,0.695,0.19c0.214,0.1,0.397,0.225,0.55,0.377c0.15,0.153,0.268,0.326,0.347,0.522
	C108.088,96.065,108.116,96.272,108.091,96.491z M111.039,98.518l-1.578-0.102l0.04-0.652l0.464,0.031l0.178-2.771l-0.463-0.028
	l0.043-0.651l1.166,0.073l-0.219,3.42l0.412,0.028L111.039,98.518z M116.468,97.724c-0.11,0.208-0.255,0.384-0.438,0.526
	c-0.184,0.146-0.395,0.255-0.634,0.331c-0.239,0.077-0.494,0.112-0.762,0.107c-0.257-0.003-0.507-0.046-0.743-0.13
	c-0.239-0.084-0.448-0.201-0.632-0.349c-0.181-0.15-0.325-0.331-0.433-0.54c-0.106-0.211-0.157-0.445-0.152-0.703
	c0.002-0.265,0.061-0.501,0.176-0.71c0.111-0.209,0.262-0.385,0.448-0.524c0.186-0.143,0.399-0.25,0.642-0.323
	c0.239-0.071,0.488-0.107,0.748-0.103c0.265,0.003,0.517,0.046,0.756,0.125c0.237,0.079,0.446,0.193,0.624,0.342
	c0.179,0.147,0.318,0.328,0.42,0.539c0.104,0.212,0.153,0.451,0.148,0.716C116.633,97.285,116.577,97.518,116.468,97.724z
	 M121.975,97.527c-0.097,0.211-0.231,0.397-0.405,0.553c-0.173,0.152-0.376,0.277-0.61,0.366c-0.237,0.092-0.486,0.143-0.754,0.155
	c-0.138,0.008-0.28-0.008-0.426-0.043c-0.147-0.033-0.287-0.079-0.42-0.135l0.033,0.7l0.529-0.023l0.031,0.652l-1.698,0.079
	l-0.03-0.652l0.463-0.023l-0.146-3.149l-0.466,0.021l-0.03-0.651l1.054-0.049l0.052,0.237c0.114-0.079,0.267-0.153,0.458-0.227
	c0.19-0.071,0.415-0.115,0.675-0.128c0.206-0.007,0.415,0.021,0.626,0.087s0.402,0.168,0.575,0.306
	c0.171,0.138,0.313,0.308,0.426,0.515c0.114,0.203,0.178,0.44,0.188,0.702C122.112,97.079,122.071,97.313,121.975,97.527z
	 M129.36,97.67l-0.249-1.953c-0.021-0.15-0.056-0.27-0.107-0.356c-0.051-0.087-0.117-0.15-0.203-0.188
	c-0.087-0.038-0.191-0.056-0.315-0.059c-0.125,0-0.272,0.011-0.443,0.033c-0.163,0.021-0.315,0.071-0.456,0.15
	c-0.14,0.082-0.262,0.173-0.366,0.277c0.038,0.112,0.063,0.237,0.081,0.375l0.168,1.306l0.407-0.054l0.084,0.649l-1.512,0.191
	l-0.082-0.647l0.402-0.051l-0.168-1.306c-0.018-0.15-0.054-0.271-0.104-0.356c-0.051-0.087-0.119-0.15-0.203-0.188
	c-0.087-0.038-0.191-0.059-0.316-0.059c-0.124,0-0.271,0.01-0.445,0.033c-0.15,0.018-0.295,0.065-0.433,0.14
	c-0.135,0.074-0.255,0.16-0.356,0.257l0.219,1.712l0.466-0.062l0.082,0.649l-1.627,0.206l-0.082-0.646l0.461-0.059l-0.252-1.953
	l-0.458,0.059l-0.084-0.646l1.044-0.136l0.081,0.271c0.107-0.097,0.25-0.193,0.433-0.288c0.181-0.094,0.4-0.16,0.657-0.19
	c0.26-0.033,0.499-0.03,0.718,0.01c0.22,0.044,0.402,0.146,0.55,0.304c0.041-0.049,0.098-0.105,0.168-0.169
	c0.072-0.063,0.158-0.127,0.263-0.19s0.227-0.12,0.361-0.168c0.135-0.051,0.285-0.087,0.448-0.107
	c0.206-0.027,0.402-0.03,0.583-0.01c0.184,0.021,0.347,0.073,0.486,0.16c0.143,0.087,0.26,0.211,0.356,0.377
	c0.097,0.165,0.16,0.379,0.196,0.642l0.165,1.306l0.461-0.059l0.084,0.647L129.36,97.67z M134.944,96.479
	c-0.247,0.16-0.537,0.274-0.871,0.346c-0.252,0.054-0.504,0.066-0.756,0.039c-0.249-0.028-0.481-0.095-0.692-0.199
	c-0.209-0.106-0.393-0.249-0.542-0.43c-0.15-0.182-0.253-0.397-0.306-0.649c-0.057-0.26-0.057-0.502,0.002-0.729
	c0.059-0.229,0.158-0.433,0.301-0.611c0.143-0.178,0.318-0.328,0.529-0.453c0.214-0.122,0.445-0.211,0.7-0.265
	c0.245-0.054,0.484-0.066,0.718-0.041c0.234,0.025,0.448,0.087,0.642,0.184c0.194,0.097,0.356,0.225,0.494,0.385
	c0.135,0.16,0.227,0.349,0.272,0.564l0.062,0.421l-2.91,0.621c0.051,0.112,0.122,0.206,0.214,0.285s0.195,0.143,0.313,0.188
	c0.117,0.043,0.247,0.068,0.388,0.076c0.14,0.008,0.285-0.005,0.436-0.035c0.247-0.054,0.455-0.136,0.621-0.245
	c0.163-0.109,0.29-0.224,0.377-0.341l0.601,0.359C135.388,96.145,135.191,96.32,134.944,96.479z M140.449,95.121l-0.553-1.889
	c-0.043-0.146-0.1-0.258-0.168-0.334s-0.152-0.125-0.252-0.147c-0.1-0.021-0.212-0.023-0.342-0.003
	c-0.127,0.021-0.274,0.057-0.44,0.104c-0.155,0.046-0.298,0.117-0.43,0.217c-0.133,0.099-0.247,0.208-0.342,0.328l0.481,1.645
	l0.451-0.132l0.183,0.626l-1.573,0.461l-0.184-0.626l0.446-0.133l-0.556-1.889l-0.445,0.129l-0.184-0.626l1.011-0.295l0.125,0.26
	c0.097-0.112,0.237-0.234,0.415-0.364c0.179-0.13,0.393-0.229,0.64-0.303c0.2-0.059,0.395-0.092,0.583-0.103
	c0.188-0.01,0.363,0.016,0.524,0.074c0.16,0.061,0.306,0.165,0.433,0.311c0.125,0.147,0.227,0.347,0.301,0.601l0.369,1.263
	l0.445-0.13l0.186,0.627L140.449,95.121z M144.971,93.456c-0.046,0.059-0.092,0.109-0.14,0.15c-0.049,0.04-0.103,0.073-0.166,0.104
	c-0.061,0.027-0.137,0.059-0.227,0.092c-0.149,0.056-0.298,0.078-0.44,0.071c-0.143-0.008-0.274-0.041-0.399-0.1
	c-0.122-0.059-0.231-0.14-0.326-0.242c-0.094-0.102-0.168-0.224-0.219-0.364l-0.548-1.491l-0.379,0.143l-0.227-0.614l0.382-0.14
	l-0.168-0.797l0.553-0.201l0.277,0.753l0.822-0.3l0.227,0.611l-0.825,0.303l0.522,1.421c0.022,0.056,0.051,0.109,0.084,0.16
	c0.035,0.049,0.073,0.089,0.117,0.125c0.046,0.033,0.094,0.056,0.147,0.066c0.054,0.012,0.112,0.005,0.176-0.019
	c0.048-0.018,0.086-0.033,0.117-0.048c0.03-0.016,0.056-0.033,0.076-0.051c0.023-0.021,0.043-0.044,0.062-0.069
	c0.018-0.025,0.038-0.061,0.063-0.104l0.596,0.309C145.067,93.321,145.017,93.397,144.971,93.456z"/>
<path  d="M106.347,95.439c-0.282-0.033-0.527,0-0.733,0.1c-0.209,0.099-0.361,0.247-0.461,0.442l2.18,0.25
	c-0.038-0.214-0.141-0.39-0.303-0.532C106.866,95.559,106.637,95.473,106.347,95.439z"/>
<path  d="M91.108,91.531c-0.147-0.127-0.321-0.225-0.517-0.29l-1.342-0.464l-0.889,2.582l1.339,0.463
	c0.196,0.066,0.392,0.098,0.588,0.09s0.377-0.046,0.545-0.12c0.168-0.071,0.315-0.173,0.445-0.306
	c0.128-0.132,0.225-0.29,0.285-0.471c0.064-0.178,0.085-0.359,0.064-0.542c-0.021-0.184-0.074-0.356-0.163-0.515
	C91.378,91.801,91.259,91.658,91.108,91.531z"/>
<path  d="M95.727,93.507c-0.274-0.071-0.521-0.071-0.74-0.003c-0.222,0.072-0.393,0.196-0.518,0.377
	l2.126,0.545c-0.01-0.216-0.084-0.404-0.227-0.567C96.224,93.698,96.01,93.581,95.727,93.507z"/>
<path  d="M81.876,100.718c0.143-0.944,0.285-1.89,0.428-2.834c-2.854-1.253-5.337-2.5-7.587-3.819
	C77.049,96.32,79.444,98.548,81.876,100.718z"/>
<path  d="M149.72,97.884l0.428,2.834c2.429-2.164,4.824-4.393,7.159-6.655
	C155.056,95.384,152.573,96.631,149.72,97.884z"/>
<path  d="M116.012,27.089H90.423v25.589h25.589V27.089z M110.952,36.475h-1.161v6.819h1.161v1.631h-4.084
	v-1.631h1.161v-6.819h-0.631l-2.661,8.45h-3.04l-2.643-8.45h-0.646v6.819h1.16v1.631H95.5v-1.631h1.144v-6.819H95.5v-1.631h4.876
	l2.643,8.45h0.397l2.658-8.45h4.878V36.475z"/>
<path  d="M131.489,64.291c0.15-0.061,0.282-0.145,0.395-0.25s0.201-0.227,0.265-0.367
	c0.064-0.143,0.097-0.292,0.097-0.456c0-0.318-0.124-0.588-0.369-0.815c-0.244-0.227-0.537-0.341-0.881-0.341h-5.125v2.325h5.125
	C131.171,64.387,131.337,64.354,131.489,64.291z"/>
<path  d="M132.067,68.769c0.186-0.079,0.352-0.181,0.494-0.306c0.14-0.127,0.254-0.28,0.336-0.456
	c0.084-0.178,0.125-0.364,0.125-0.565c0-0.188-0.038-0.369-0.117-0.542c-0.079-0.173-0.188-0.321-0.331-0.448
	c-0.141-0.127-0.304-0.229-0.484-0.306c-0.181-0.076-0.374-0.12-0.58-0.13h-5.64v2.867h5.597
	C131.681,68.884,131.882,68.846,132.067,68.769z"/>
<path  d="M116.012,78.269h25.591v-25.59h-25.591V78.269z M122.96,68.884h1.146v-6.821h-1.146v-1.629h8.035
	c0.413,0,0.802,0.071,1.169,0.216c0.366,0.146,0.688,0.344,0.963,0.599c0.271,0.254,0.488,0.55,0.646,0.891
	c0.155,0.338,0.234,0.698,0.234,1.08c0,0.326-0.059,0.636-0.176,0.929c-0.117,0.295-0.275,0.56-0.472,0.797
	c0.451,0.262,0.803,0.624,1.052,1.084c0.25,0.464,0.374,0.935,0.374,1.413c0,0.428-0.089,0.825-0.265,1.197
	s-0.417,0.698-0.721,0.978c-0.303,0.28-0.656,0.501-1.057,0.659c-0.402,0.158-0.827,0.237-1.277,0.237h-8.507V68.884z"/>
<path  d="M127.028,43.281h-1.158v-2.867h1.614c0.255,0,0.499,0.067,0.735,0.204
	c0.234,0.136,0.405,0.322,0.515,0.558l0.909,1.833c0.306,0.607,0.683,1.087,1.133,1.441c0.448,0.353,1.031,0.529,1.747,0.529
	c0.254,0,0.483-0.023,0.682-0.068c0.201-0.045,0.39-0.111,0.568-0.196c0.176-0.087,0.344-0.195,0.507-0.326
	c0.16-0.131,0.328-0.278,0.506-0.441l-1.103-1.155c-0.195,0.181-0.369,0.318-0.521,0.414c-0.152,0.096-0.364,0.143-0.639,0.143
	c-0.344,0-0.594-0.076-0.749-0.23c-0.158-0.154-0.298-0.363-0.425-0.625l-1.06-2.146c-0.038-0.073-0.094-0.15-0.168-0.232
	s-0.155-0.158-0.242-0.23c-0.089-0.072-0.181-0.134-0.272-0.183c-0.094-0.05-0.168-0.081-0.227-0.089
	c0.066-0.018,0.148-0.059,0.242-0.122c0.092-0.063,0.186-0.138,0.277-0.224c0.095-0.085,0.181-0.178,0.265-0.279
	c0.084-0.099,0.15-0.189,0.199-0.271l1.044-1.875c0.068-0.126,0.17-0.229,0.308-0.305c0.138-0.077,0.277-0.116,0.425-0.116
	c0.245,0,0.54,0.177,0.882,0.53l1.146-1.045c-0.255-0.363-0.563-0.639-0.925-0.829c-0.361-0.191-0.73-0.286-1.103-0.286
	c-0.529,0-0.995,0.132-1.402,0.395c-0.405,0.264-0.723,0.598-0.947,1.006l-1.072,1.916c-0.127,0.227-0.3,0.396-0.521,0.509
	c-0.219,0.113-0.458,0.169-0.713,0.169h-1.614V36.46h1.158v-1.629h-4.068v1.629h1.146v6.821h-1.146v1.63h4.068V43.281z"/>
<path  d="M109.292,61.852c-0.509-0.448-1.095-0.795-1.757-1.044c-0.659-0.25-1.356-0.375-2.093-0.375H95.5
	v1.629h1.144v6.821H95.5v1.629h9.942c0.795,0,1.525-0.135,2.197-0.407c0.67-0.27,1.251-0.639,1.739-1.1
	c0.491-0.461,0.876-0.998,1.153-1.609c0.28-0.611,0.42-1.258,0.42-1.938c0-0.723-0.149-1.395-0.448-2.011
	C110.204,62.834,109.802,62.302,109.292,61.852z M108.896,66.806c-0.196,0.415-0.464,0.779-0.8,1.084
	c-0.339,0.308-0.735,0.553-1.191,0.729c-0.453,0.175-0.942,0.265-1.462,0.265h-7.034v-6.821h7.034c0.52,0,1.009,0.089,1.462,0.265
	c0.456,0.179,0.853,0.418,1.191,0.721c0.336,0.303,0.604,0.665,0.8,1.08c0.195,0.417,0.295,0.861,0.295,1.332
	C109.19,65.94,109.091,66.389,108.896,66.806z"/>
<path  d="M116.012,13.151c3.271,0,7.213,0.839,8.965,1.65l3.083-9.348l-1.312-0.349l-0.61,2.794l-1.309-1.136
	l-0.524,2.01c0,0,1.57,0.086,1.484,0.261c-0.436,0.874-2.534,2.359-5.243,1.834c-3.972-0.769-3.755-4.193-3.755-4.193l2.098,0.612
	l0.173-2.533L117.14,5.19l0.786-3.669h-1.914h-1.915l0.787,3.669l-1.923-0.437l0.176,2.533l2.099-0.612c0,0,0.216,3.424-3.759,4.193
	c-2.706,0.524-4.804-0.961-5.239-1.834c-0.089-0.174,1.484-0.261,1.484-0.261l-0.524-2.01l-1.312,1.136l-0.611-2.794l-1.309,0.349
	l3.081,9.348C108.801,13.99,112.74,13.151,116.012,13.151z"/>
</svg>
